<?xml version="1.0" standalone="no"?>
<!DOCTYPE svg PUBLIC "-//W3C//DTD SVG 20010904//EN"
 "http://www.w3.org/TR/2001/REC-SVG-20010904/DTD/svg10.dtd">
<svg version="1.0" xmlns="http://www.w3.org/2000/svg"
 width="344.000000pt" height="147.000000pt" viewBox="0 0 344.000000 147.000000"
 preserveAspectRatio="xMidYMid meet">

<g transform="translate(0.000000,147.000000) scale(0.100000,-0.100000)"
fill="#000000" stroke="none">
<path d="M120 1330 l0 -140 -60 0 -60 0 0 -120 0 -120 60 0 60 0 0 -165 c0
-235 20 -309 100 -378 49 -41 103 -57 199 -57 l71 0 0 119 0 118 -45 5 c-75 9
-75 9 -75 194 l0 164 60 0 60 0 0 120 0 120 -60 0 -60 0 0 140 0 140 -125 0
-125 0 0 -140z"/>
<path d="M1090 1370 l0 -100 120 0 120 0 0 100 0 100 -120 0 -120 0 0 -100z"/>
<path d="M3190 1195 c0 -8 6 -14 13 -12 8 1 13 -15 15 -50 4 -68 22 -69 22 -2
0 42 3 52 20 56 36 9 21 23 -25 23 -33 0 -45 -4 -45 -15z"/>
<path d="M3310 1145 c0 -37 4 -65 10 -65 6 0 10 17 10 38 l0 37 24 -30 24 -30
13 28 c17 37 29 34 29 -8 0 -19 5 -35 10 -35 6 0 10 28 10 65 0 74 -11 82 -41
30 -12 -19 -22 -35 -24 -35 -2 0 -13 16 -25 35 -12 19 -26 35 -31 35 -5 0 -9
-29 -9 -65z"/>
<path d="M570 770 l0 -420 120 0 120 0 0 228 c0 216 1 230 23 272 27 55 74 88
136 96 l46 6 -3 120 -3 121 -60 -6 c-33 -3 -75 -14 -95 -26 -44 -26 -44 -26
-44 4 l0 25 -120 0 -120 0 0 -420z"/>
<path d="M1090 770 l0 -420 120 0 120 0 0 420 0 420 -120 0 -120 0 0 -420z"/>
<path d="M1755 1178 c-219 -41 -375 -262 -336 -474 26 -144 111 -257 238 -316
84 -40 199 -49 285 -24 71 20 68 21 57 -16 -12 -43 -58 -84 -111 -99 -59 -16
-178 0 -253 35 -31 14 -61 24 -65 21 -11 -7 -113 -196 -108 -201 14 -13 144
-64 203 -80 93 -23 251 -24 325 -2 112 35 187 103 235 216 19 44 20 73 23 500
l3 452 -120 0 c-116 0 -121 -1 -121 -21 0 -16 -4 -19 -17 -14 -29 11 -146 35
-168 34 -11 -1 -42 -6 -70 -11z m148 -252 c68 -29 113 -110 102 -182 -25 -167
-243 -208 -326 -61 -28 51 -24 138 10 185 45 64 140 90 214 58z"/>
<path d="M2640 1176 c-187 -52 -310 -213 -310 -406 0 -210 143 -377 355 -413
173 -30 366 75 443 240 24 52 27 69 27 173 0 104 -3 121 -27 173 -85 181 -301
285 -488 233z m191 -251 c78 -41 112 -152 70 -233 -47 -93 -166 -124 -253 -67
-45 30 -78 91 -78 145 0 42 29 108 58 133 51 46 138 55 203 22z"/>
</g>
</svg>
